<svg width="1240" height="322" viewBox="0 0 1240 322" fill="none" xmlns="http://www.w3.org/2000/svg">
<path d="M1189.08 5.80664V2.77563H1239.74V5.80664C1220.69 15.3326 1216.79 35.6836 1213.76 45.2096L1125 318H1119.8L1050.52 114.057L976.045 318H970.416L863.032 38.7146C857.836 24.8586 854.372 15.3326 838.784 5.37363V2.77563H900.27V5.37363C889.012 12.7346 881.651 20.0956 889.012 38.7146L980.808 284.226L1046.62 102.799L1024.97 38.7146C1020.21 24.8586 1016.31 15.3326 1000.73 5.37363V2.77563H1062.21V5.37363C1050.95 12.7346 1044.03 20.0956 1050.52 38.7146L1129.76 281.628L1204.67 46.5086C1209.86 31.3536 1205.53 12.7346 1189.08 5.80664Z" fill="#E9B9B9"/>
<path d="M679.301 321.031C595.732 321.031 529.916 253.483 529.916 160.821C529.916 67.7257 595.732 0.177734 679.301 0.177734C763.303 0.177734 829.119 67.7257 829.119 160.388C829.119 253.05 763.303 321.031 679.301 321.031ZM679.301 314.969C748.581 314.969 800.108 252.617 800.108 160.388C800.108 67.7257 748.581 6.23973 679.301 6.23973C610.454 6.23973 558.494 67.7257 558.494 160.388C558.927 252.617 610.454 314.969 679.301 314.969Z" fill="#E9B9B9"/>
<path d="M508.994 264.308H510.726L500.334 318H308.082V315.402C318.907 311.072 323.237 300.247 323.237 288.123V32.6526C323.237 20.5286 318.907 9.70365 308.082 5.37363V2.77563H364.805V5.37363C353.98 9.70365 349.217 20.5286 349.217 32.6526V312.371H441.013C478.684 312.371 499.035 288.556 508.994 264.308Z" fill="#E9B9B9"/>
<path d="M152.932 321.031C57.6722 321.031 0.949219 252.617 0.949219 160.821C0.949219 67.7257 57.6722 0.177734 146.437 0.177734C201.428 0.177734 242.996 37.8487 242.996 88.0767H240.831C240.831 45.2097 195.799 13.6007 148.169 13.6007C76.7242 13.6007 29.5272 75.5197 29.5272 159.089C29.5272 246.555 77.1572 314.969 152.932 314.969C185.407 314.969 205.758 304.144 227.408 287.69V192.863C227.408 176.842 223.078 169.914 203.16 165.584V162.986H252.522V291.154C227.841 308.041 188.438 321.031 152.932 321.031Z" fill="#E9B9B9"/>
</svg>
